<svg id="bx-search-alt" xmlns="http://www.w3.org/2000/svg" width="16" height="16" viewBox="0 0 16 16">
  <rect id="Background" width="16" height="16" fill="none"/>
  <path id="Shape" d="M11.529,12.472h0L8.6,9.541a5.275,5.275,0,0,1-3.264,1.126,5.333,5.333,0,1,1,5.333-5.333A5.279,5.279,0,0,1,9.541,8.6l2.93,2.93-.942.942ZM5.333,1.333a4,4,0,1,0,4,4A4.005,4.005,0,0,0,5.333,1.333Z" transform="translate(1.333 1.333)" fill="#74788d"/>
  <path id="Shape-2" data-name="Shape" d="M2.825,1.7a1.327,1.327,0,0,1,.392.943H4.551A2.651,2.651,0,0,0,3.768.756,2.726,2.726,0,0,0,0,.756L.941,1.7a1.363,1.363,0,0,1,1.884,0Z" transform="translate(4.783 4.025)" fill="#74788d"/>
</svg>
